<svg height="20" viewBox="0 0 128 128" width="20" xmlns="http://www.w3.org/2000/svg"><path d="m84 11c-1.7 0-3 1.3-3 3s1.3 3 3 3h22.80078l-46.400389 46.400391c-1.2 1.2-1.2 3.099218 0 4.199218.6.6 1.399609.900391 2.099609.900391s1.499609-.300391 2.099609-.900391l46.400391-46.40039v22.800781c0 1.7 1.3 3 3 3s3-1.3 3-3v-30c0-1.7-1.3-3-3-3zm-60 20c-7.2 0-13 5.8-13 13v60c0 7.2 5.8 13 13 13h60c7.2 0 13-5.8 13-13v-45c0-1.7-1.3-3-3-3s-3 1.3-3 3v45c0 3.9-3.1 7-7 7h-60c-3.9 0-7-3.1-7-7v-60c0-3.9 3.1-7 7-7h45c1.7 0 3-1.3 3-3s-1.3-3-3-3z"/></svg>